<mxfile host="app.diagrams.net" agent="Mozilla/5.0 (Windows NT 10.0; Win64; x64) AppleWebKit/537.36 (KHTML, like Gecko) Chrome/140.0.0.0 Safari/537.36 Edg/140.0.0.0" version="28.2.5">
  <diagram name="Trang-1" id="KbYr3HQFvFy3aJer_qOY">
    <mxGraphModel dx="1815" dy="572" grid="1" gridSize="10" guides="1" tooltips="1" connect="1" arrows="1" fold="1" page="1" pageScale="1" pageWidth="827" pageHeight="1169" math="0" shadow="0">
      <root>
        <mxCell id="0" />
        <mxCell id="1" parent="0" />
        <mxCell id="W-A1cd6n8ZSIkVQpZxDT-25" style="edgeStyle=orthogonalEdgeStyle;rounded=0;orthogonalLoop=1;jettySize=auto;html=1;exitX=0.5;exitY=1;exitDx=0;exitDy=0;" edge="1" parent="1" source="W-A1cd6n8ZSIkVQpZxDT-1" target="W-A1cd6n8ZSIkVQpZxDT-3">
          <mxGeometry relative="1" as="geometry" />
        </mxCell>
        <mxCell id="W-A1cd6n8ZSIkVQpZxDT-1" value="0" style="ellipse;whiteSpace=wrap;html=1;aspect=fixed;" vertex="1" parent="1">
          <mxGeometry x="120" y="220" width="80" height="80" as="geometry" />
        </mxCell>
        <mxCell id="W-A1cd6n8ZSIkVQpZxDT-9" value="" style="edgeStyle=orthogonalEdgeStyle;rounded=0;orthogonalLoop=1;jettySize=auto;html=1;" edge="1" parent="1" source="W-A1cd6n8ZSIkVQpZxDT-3" target="W-A1cd6n8ZSIkVQpZxDT-8">
          <mxGeometry relative="1" as="geometry" />
        </mxCell>
        <mxCell id="W-A1cd6n8ZSIkVQpZxDT-3" value="1" style="ellipse;whiteSpace=wrap;html=1;aspect=fixed;" vertex="1" parent="1">
          <mxGeometry x="120" y="320" width="80" height="80" as="geometry" />
        </mxCell>
        <mxCell id="W-A1cd6n8ZSIkVQpZxDT-4" value="TimKs(n)" style="text;html=1;align=center;verticalAlign=middle;whiteSpace=wrap;rounded=0;" vertex="1" parent="1">
          <mxGeometry x="210" y="245" width="60" height="30" as="geometry" />
        </mxCell>
        <mxCell id="W-A1cd6n8ZSIkVQpZxDT-8" value="2" style="ellipse;whiteSpace=wrap;html=1;aspect=fixed;" vertex="1" parent="1">
          <mxGeometry x="120" y="460" width="80" height="80" as="geometry" />
        </mxCell>
        <mxCell id="W-A1cd6n8ZSIkVQpZxDT-10" value="d = n % 10" style="text;html=1;align=center;verticalAlign=middle;whiteSpace=wrap;rounded=0;" vertex="1" parent="1">
          <mxGeometry x="210" y="345" width="60" height="30" as="geometry" />
        </mxCell>
        <mxCell id="W-A1cd6n8ZSIkVQpZxDT-11" value="if" style="text;html=1;align=center;verticalAlign=middle;whiteSpace=wrap;rounded=0;" vertex="1" parent="1">
          <mxGeometry x="190" y="485" width="60" height="30" as="geometry" />
        </mxCell>
        <mxCell id="W-A1cd6n8ZSIkVQpZxDT-12" value="3" style="ellipse;whiteSpace=wrap;html=1;aspect=fixed;" vertex="1" parent="1">
          <mxGeometry x="400" y="515" width="80" height="80" as="geometry" />
        </mxCell>
        <mxCell id="W-A1cd6n8ZSIkVQpZxDT-13" value="" style="endArrow=classic;html=1;rounded=0;entryX=0.5;entryY=0;entryDx=0;entryDy=0;exitX=0;exitY=1;exitDx=0;exitDy=0;" edge="1" parent="1" source="W-A1cd6n8ZSIkVQpZxDT-8" target="W-A1cd6n8ZSIkVQpZxDT-12">
          <mxGeometry width="50" height="50" relative="1" as="geometry">
            <mxPoint x="390" y="520" as="sourcePoint" />
            <mxPoint x="440" y="470" as="targetPoint" />
          </mxGeometry>
        </mxCell>
        <mxCell id="W-A1cd6n8ZSIkVQpZxDT-15" value="d%2==0" style="text;html=1;align=center;verticalAlign=middle;whiteSpace=wrap;rounded=0;" vertex="1" parent="1">
          <mxGeometry x="40" y="515" width="60" height="30" as="geometry" />
        </mxCell>
        <mxCell id="W-A1cd6n8ZSIkVQpZxDT-16" value="4" style="ellipse;whiteSpace=wrap;html=1;aspect=fixed;" vertex="1" parent="1">
          <mxGeometry x="400" y="655" width="80" height="80" as="geometry" />
        </mxCell>
        <mxCell id="W-A1cd6n8ZSIkVQpZxDT-18" value="" style="endArrow=classic;html=1;rounded=0;entryX=0.593;entryY=-0.01;entryDx=0;entryDy=0;entryPerimeter=0;exitX=0.5;exitY=1;exitDx=0;exitDy=0;" edge="1" parent="1" source="W-A1cd6n8ZSIkVQpZxDT-12" target="W-A1cd6n8ZSIkVQpZxDT-16">
          <mxGeometry width="50" height="50" relative="1" as="geometry">
            <mxPoint x="770" y="565" as="sourcePoint" />
            <mxPoint x="820" y="515" as="targetPoint" />
          </mxGeometry>
        </mxCell>
        <mxCell id="W-A1cd6n8ZSIkVQpZxDT-20" value="&lt;span style=&quot;color: rgb(0, 0, 0); font-family: Helvetica; font-size: 12px; font-style: normal; font-variant-ligatures: normal; font-variant-caps: normal; font-weight: 400; letter-spacing: normal; orphans: 2; text-align: center; text-indent: 0px; text-transform: none; widows: 2; word-spacing: 0px; -webkit-text-stroke-width: 0px; white-space: normal; background-color: rgb(236, 236, 236); text-decoration-thickness: initial; text-decoration-style: initial; text-decoration-color: initial; float: none; display: inline !important;&quot;&gt;if - else&lt;/span&gt;" style="text;whiteSpace=wrap;html=1;" vertex="1" parent="1">
          <mxGeometry x="500" y="535" width="40" height="40" as="geometry" />
        </mxCell>
        <mxCell id="W-A1cd6n8ZSIkVQpZxDT-21" value="d&amp;gt;5" style="text;html=1;align=center;verticalAlign=middle;whiteSpace=wrap;rounded=0;" vertex="1" parent="1">
          <mxGeometry x="384" y="605" width="60" height="30" as="geometry" />
        </mxCell>
        <mxCell id="W-A1cd6n8ZSIkVQpZxDT-35" style="edgeStyle=orthogonalEdgeStyle;rounded=0;orthogonalLoop=1;jettySize=auto;html=1;entryX=0.5;entryY=0;entryDx=0;entryDy=0;" edge="1" parent="1" source="W-A1cd6n8ZSIkVQpZxDT-23" target="W-A1cd6n8ZSIkVQpZxDT-34">
          <mxGeometry relative="1" as="geometry" />
        </mxCell>
        <mxCell id="W-A1cd6n8ZSIkVQpZxDT-23" value="7" style="ellipse;whiteSpace=wrap;html=1;aspect=fixed;" vertex="1" parent="1">
          <mxGeometry x="300" y="840" width="80" height="80" as="geometry" />
        </mxCell>
        <mxCell id="W-A1cd6n8ZSIkVQpZxDT-24" value="" style="endArrow=classic;html=1;rounded=0;entryX=0.313;entryY=-0.015;entryDx=0;entryDy=0;entryPerimeter=0;" edge="1" parent="1" source="W-A1cd6n8ZSIkVQpZxDT-8" target="W-A1cd6n8ZSIkVQpZxDT-23">
          <mxGeometry width="50" height="50" relative="1" as="geometry">
            <mxPoint x="390" y="620" as="sourcePoint" />
            <mxPoint x="440" y="570" as="targetPoint" />
          </mxGeometry>
        </mxCell>
        <mxCell id="W-A1cd6n8ZSIkVQpZxDT-26" value="6" style="ellipse;whiteSpace=wrap;html=1;aspect=fixed;" vertex="1" parent="1">
          <mxGeometry x="80" y="840" width="80" height="80" as="geometry" />
        </mxCell>
        <mxCell id="W-A1cd6n8ZSIkVQpZxDT-29" value="&lt;span style=&quot;color: rgb(0, 0, 0); font-family: Helvetica; font-size: 12px; font-style: normal; font-variant-ligatures: normal; font-variant-caps: normal; font-weight: 400; letter-spacing: normal; orphans: 2; text-align: center; text-indent: 0px; text-transform: none; widows: 2; word-spacing: 0px; -webkit-text-stroke-width: 0px; white-space: normal; background-color: rgb(236, 236, 236); text-decoration-thickness: initial; text-decoration-style: initial; text-decoration-color: initial; float: none; display: inline !important;&quot;&gt;d%2!=0&lt;/span&gt;" style="text;whiteSpace=wrap;html=1;" vertex="1" parent="1">
          <mxGeometry x="270" y="680" width="80" height="40" as="geometry" />
        </mxCell>
        <mxCell id="W-A1cd6n8ZSIkVQpZxDT-31" value="return d" style="text;html=1;align=center;verticalAlign=middle;whiteSpace=wrap;rounded=0;" vertex="1" parent="1">
          <mxGeometry x="410" y="665" width="60" height="30" as="geometry" />
        </mxCell>
        <mxCell id="W-A1cd6n8ZSIkVQpZxDT-33" value="n/=10" style="text;html=1;align=center;verticalAlign=middle;whiteSpace=wrap;rounded=0;" vertex="1" parent="1">
          <mxGeometry x="384" y="865" width="60" height="30" as="geometry" />
        </mxCell>
        <mxCell id="W-A1cd6n8ZSIkVQpZxDT-34" value="8" style="ellipse;whiteSpace=wrap;html=1;aspect=fixed;" vertex="1" parent="1">
          <mxGeometry x="300" y="960" width="80" height="80" as="geometry" />
        </mxCell>
        <mxCell id="W-A1cd6n8ZSIkVQpZxDT-36" value="while" style="text;html=1;align=center;verticalAlign=middle;whiteSpace=wrap;rounded=0;" vertex="1" parent="1">
          <mxGeometry x="370" y="980" width="60" height="30" as="geometry" />
        </mxCell>
        <mxCell id="W-A1cd6n8ZSIkVQpZxDT-37" value="9" style="ellipse;whiteSpace=wrap;html=1;aspect=fixed;" vertex="1" parent="1">
          <mxGeometry x="490" y="960" width="80" height="80" as="geometry" />
        </mxCell>
        <mxCell id="W-A1cd6n8ZSIkVQpZxDT-38" value="return -1" style="text;html=1;align=center;verticalAlign=middle;whiteSpace=wrap;rounded=0;" vertex="1" parent="1">
          <mxGeometry x="560" y="985" width="60" height="30" as="geometry" />
        </mxCell>
        <mxCell id="W-A1cd6n8ZSIkVQpZxDT-39" value="" style="endArrow=classic;html=1;rounded=0;entryX=0;entryY=0.5;entryDx=0;entryDy=0;exitX=1;exitY=1;exitDx=0;exitDy=0;" edge="1" parent="1" source="W-A1cd6n8ZSIkVQpZxDT-34" target="W-A1cd6n8ZSIkVQpZxDT-37">
          <mxGeometry width="50" height="50" relative="1" as="geometry">
            <mxPoint x="340" y="1120" as="sourcePoint" />
            <mxPoint x="390" y="1070" as="targetPoint" />
          </mxGeometry>
        </mxCell>
        <mxCell id="W-A1cd6n8ZSIkVQpZxDT-40" value="n&amp;lt;=10" style="text;html=1;align=center;verticalAlign=middle;whiteSpace=wrap;rounded=0;" vertex="1" parent="1">
          <mxGeometry x="400" y="1040" width="60" height="30" as="geometry" />
        </mxCell>
        <mxCell id="W-A1cd6n8ZSIkVQpZxDT-41" value="" style="endArrow=classic;html=1;rounded=0;exitX=0;exitY=0.5;exitDx=0;exitDy=0;entryX=0;entryY=0.5;entryDx=0;entryDy=0;" edge="1" parent="1" source="W-A1cd6n8ZSIkVQpZxDT-34" target="W-A1cd6n8ZSIkVQpZxDT-8">
          <mxGeometry width="50" height="50" relative="1" as="geometry">
            <mxPoint x="390" y="840" as="sourcePoint" />
            <mxPoint x="440" y="790" as="targetPoint" />
            <Array as="points">
              <mxPoint x="20" y="950" />
              <mxPoint y="790" />
              <mxPoint x="-20" y="560" />
            </Array>
          </mxGeometry>
        </mxCell>
        <mxCell id="W-A1cd6n8ZSIkVQpZxDT-43" value="10" style="ellipse;whiteSpace=wrap;html=1;aspect=fixed;" vertex="1" parent="1">
          <mxGeometry x="500" y="785" width="80" height="80" as="geometry" />
        </mxCell>
        <mxCell id="W-A1cd6n8ZSIkVQpZxDT-44" value="" style="endArrow=classic;html=1;rounded=0;entryX=0.5;entryY=0;entryDx=0;entryDy=0;exitX=0.5;exitY=1;exitDx=0;exitDy=0;" edge="1" parent="1" source="W-A1cd6n8ZSIkVQpZxDT-16" target="W-A1cd6n8ZSIkVQpZxDT-43">
          <mxGeometry width="50" height="50" relative="1" as="geometry">
            <mxPoint x="390" y="840" as="sourcePoint" />
            <mxPoint x="440" y="790" as="targetPoint" />
          </mxGeometry>
        </mxCell>
        <mxCell id="W-A1cd6n8ZSIkVQpZxDT-45" value="" style="endArrow=classic;html=1;rounded=0;exitX=0.5;exitY=0;exitDx=0;exitDy=0;entryX=0.5;entryY=1;entryDx=0;entryDy=0;" edge="1" parent="1" source="W-A1cd6n8ZSIkVQpZxDT-37" target="W-A1cd6n8ZSIkVQpZxDT-43">
          <mxGeometry width="50" height="50" relative="1" as="geometry">
            <mxPoint x="510" y="970" as="sourcePoint" />
            <mxPoint x="560" y="920" as="targetPoint" />
          </mxGeometry>
        </mxCell>
      </root>
    </mxGraphModel>
  </diagram>
</mxfile>
